<svg width="21" height="20" viewBox="0 0 21 20" fill="none" xmlns="http://www.w3.org/2000/svg">
<path d="M19.097 19.1667H2.26096C1.25296 19.1667 0.446289 18.4333 0.446289 17.4207V15.3967C0.446289 14.3847 1.26562 13.6507 2.26096 13.6507H19.097C20.105 13.6507 20.9236 14.384 20.9236 15.3967V17.4207C20.9116 18.4327 20.105 19.1667 19.097 19.1667ZM17.0556 15.08C16.7059 15.0798 16.3703 15.2182 16.1223 15.4648C15.8743 15.7114 15.7341 16.0462 15.7323 16.396C15.7323 17.1293 16.3243 17.724 17.0556 17.724C17.4045 17.712 17.7347 17.5634 17.9752 17.3103C18.2156 17.0572 18.3469 16.7197 18.341 16.3707C18.3296 16.0329 18.1907 15.712 17.9522 15.4725C17.7137 15.233 17.3933 15.0928 17.0556 15.08ZM19.097 12.3347H2.26096C1.25296 12.3347 0.446289 11.6013 0.446289 10.5893V8.56467C0.446289 7.55267 1.26562 6.81867 2.26096 6.81867H19.097C20.105 6.81867 20.9236 7.55267 20.9236 8.56533V10.5893C20.9116 11.6013 20.105 12.3347 19.097 12.3347ZM17.0556 8.26133C16.8815 8.2616 16.7092 8.29616 16.5484 8.36305C16.3877 8.42994 16.2417 8.52784 16.1188 8.65116C15.9959 8.77449 15.8985 8.92082 15.8322 9.08179C15.7659 9.24277 15.7319 9.41523 15.7323 9.58933C15.7323 10.3233 16.3243 10.9053 17.0556 10.918C17.2291 10.9191 17.401 10.8858 17.5615 10.8201C17.722 10.7544 17.8679 10.6576 17.9909 10.5353C18.1138 10.413 18.2114 10.2675 18.2778 10.1074C18.3443 9.94719 18.3785 9.77543 18.3783 9.602C18.3819 9.42646 18.3504 9.25196 18.2854 9.08883C18.2205 8.9257 18.1235 8.77725 18.0002 8.65226C17.8768 8.52727 17.7297 8.42827 17.5675 8.36113C17.4053 8.29398 17.2312 8.26005 17.0556 8.26133C17.0676 8.26133 17.0676 8.26133 17.0556 8.26133ZM19.097 5.516H2.26096C1.25296 5.516 0.446289 4.78267 0.446289 3.77V1.74667C0.446289 0.733333 1.26629 0 2.26096 0H19.097C20.105 0 20.9236 0.733333 20.9236 1.746V3.77C20.9116 4.782 20.105 5.516 19.097 5.516ZM17.0556 1.42933C16.8815 1.4296 16.7091 1.46418 16.5483 1.53111C16.3875 1.59804 16.2415 1.696 16.1186 1.8194C15.9957 1.9428 15.8983 2.0892 15.832 2.25025C15.7657 2.41131 15.7319 2.58384 15.7323 2.758C15.7323 3.49133 16.3243 4.074 17.0556 4.074C17.4033 4.07137 17.7359 3.93168 17.9811 3.68528C18.2264 3.43888 18.3646 3.10567 18.3656 2.758C18.3685 2.58428 18.3368 2.41173 18.2722 2.25043C18.2077 2.08913 18.1116 1.94232 17.9896 1.8186C17.8676 1.69488 17.7222 1.59673 17.5618 1.52989C17.4015 1.46305 17.2294 1.42887 17.0556 1.42933Z" fill="#D6E0EB"/>
</svg>
