<svg width="24" height="24" viewBox="0 0 24 24" fill="none" xmlns="http://www.w3.org/2000/svg">
<path d="M9.25 22.5C10.2165 22.5 11 21.7165 11 20.75C11 19.7835 10.2165 19 9.25 19C8.2835 19 7.5 19.7835 7.5 20.75C7.5 21.7165 8.2835 22.5 9.25 22.5Z" fill="#D6E0EB"/>
<path d="M17.75 22.5C18.7165 22.5 19.5 21.7165 19.5 20.75C19.5 19.7835 18.7165 19 17.75 19C16.7835 19 16 19.7835 16 20.75C16 21.7165 16.7835 22.5 17.75 22.5Z" fill="#D6E0EB"/>
<path d="M1.5 3L6 6L8.5 17H18.5L21 8.5H11.5" stroke="#D6E0EB" stroke-width="2" stroke-linecap="round" stroke-linejoin="round"/>
<path d="M11.5 13H15.1364H19.5" stroke="#D6E0EB" stroke-width="2" stroke-linecap="round" stroke-linejoin="round"/>
</svg>
